<svg viewBox="0 0 10000 10000" xmlns="http://www.w3.org/2000/svg">
<path d="M0,0 l10000,0 l0,10000 l-10000,0 z" fill="white"/>
<path d="M4140,9653 l368,0 l0,347 l-368,0 z" fill="#fe00ff" stroke="black" stroke-width="5"/>
<path d="M0,6327 l491,0 l0,3673 l-491,0 z" fill="#8000ff" stroke="black" stroke-width="5"/>
<path d="M1424,4811 l888,0 l0,642 l-888,0 z" fill="#fe00ff" stroke="black" stroke-width="5"/>
<path d="M1445,820 l1841,0 l0,900 l-1841,0 z" fill="#ff00fe" stroke="black" stroke-width="5"/>
<path d="M2028,318 l1812,0 l0,502 l-1812,0 z" fill="#a100ff" stroke="black" stroke-width="5"/>
<path d="M6018,7230 l754,0 l0,963 l-754,0 z" fill="#fe00ff" stroke="black" stroke-width="5"/>
<path d="M6206,110 l1385,0 l0,1610 l-1385,0 z" fill="#fe00ff" stroke="black" stroke-width="5"/>
<path d="M713,5453 l1716,0 l0,874 l-1716,0 z" fill="#6700ff" stroke="black" stroke-width="5"/>
<path d="M7750,7062 l2250,0 l0,502 l-2250,0 z" fill="#8700ff" stroke="black" stroke-width="5"/>
<path d="M5622,499 l172,0 l0,179 l-172,0 z" fill="#ff00fe" stroke="black" stroke-width="5"/>
<path d="M2438,1720 l1404,0 l0,1202 l-1404,0 z" fill="#3400ff" stroke="black" stroke-width="5"/>
<path d="M795,9097 l397,0 l0,419 l-397,0 z" fill="#ff00fe" stroke="black" stroke-width="5"/>
<path d="M6891,4117 l3109,0 l0,1093 l-3109,0 z" fill="#e300ff" stroke="black" stroke-width="5"/>
<path d="M3468,7869 l549,0 l0,555 l-549,0 z" fill="#fe00ff" stroke="black" stroke-width="5"/>
<path d="M6683,8467 l85,0 l0,88 l-85,0 z" fill="#ff00fe" stroke="black" stroke-width="5"/>
<path d="M3426,3696 l650,0 l0,2401 l-650,0 z" fill="#9f00ff" stroke="black" stroke-width="5"/>
<path d="M4076,4598 l1322,0 l0,926 l-1322,0 z" fill="#ff00fe" stroke="black" stroke-width="5"/>
<path d="M9487,9694 l271,0 l0,306 l-271,0 z" fill="#fe00ff" stroke="black" stroke-width="5"/>
<path d="M1806,470 l222,0 l0,262 l-222,0 z" fill="#ff00fe" stroke="black" stroke-width="5"/>
<path d="M5398,4591 l316,0 l0,3955 l-316,0 z" fill="#ff00fe" stroke="black" stroke-width="5"/>
<path d="M6954,3011 l883,0 l0,935 l-883,0 z" fill="#ff00fe" stroke="black" stroke-width="5"/>
<path d="M1991,2259 l447,0 l0,388 l-447,0 z" fill="#ff00fe" stroke="black" stroke-width="5"/>
<path d="M7821,5210 l1309,0 l0,856 l-1309,0 z" fill="#ff00fe" stroke="black" stroke-width="5"/>
<path d="M4364,6147 l1034,0 l0,2884 l-1034,0 z" fill="#fe00ff" stroke="black" stroke-width="5"/>
<path d="M1207,7578 l442,0 l0,2422 l-442,0 z" fill="#a500ff" stroke="black" stroke-width="5"/>
<path d="M2429,4343 l997,0 l0,1754 l-997,0 z" fill="#ff00fe" stroke="black" stroke-width="5"/>
<path d="M7216,7062 l534,0 l0,2025 l-534,0 z" fill="#8000ff" stroke="black" stroke-width="5"/>
<path d="M491,7578 l716,0 l0,1414 l-716,0 z" fill="#ff00fe" stroke="black" stroke-width="5"/>
<path d="M5389,2440 l1018,0 l0,2151 l-1018,0 z" fill="#ff00fe" stroke="black" stroke-width="5"/>
<path d="M2526,8424 l1614,0 l0,1576 l-1614,0 z" fill="#ed00ff" stroke="black" stroke-width="5"/>
<path d="M5714,5684 l404,0 l0,506 l-404,0 z" fill="#fe00ff" stroke="black" stroke-width="5"/>
<path d="M6772,7946 l444,0 l0,519 l-444,0 z" fill="#fe00ff" stroke="black" stroke-width="5"/>
<path d="M4364,5524 l1034,0 l0,623 l-1034,0 z" fill="#2e00ff" stroke="black" stroke-width="5"/>
<path d="M5054,827 l1152,0 l0,1458 l-1152,0 z" fill="#fe00ff" stroke="black" stroke-width="5"/>
<path d="M3842,827 l1212,0 l0,925 l-1212,0 z" fill="#2e00ff" stroke="black" stroke-width="5"/>
<path d="M0,1434 l713,0 l0,4893 l-713,0 z" fill="#fe00ff" stroke="black" stroke-width="5"/>
<path d="M4143,2636 l1246,0 l0,1962 l-1246,0 z" fill="#8a00ff" stroke="black" stroke-width="5"/>
<path d="M3863,1752 l1145,0 l0,884 l-1145,0 z" fill="#ff00fe" stroke="black" stroke-width="5"/>
<path d="M7837,1313 l2163,0 l0,1811 l-2163,0 z" fill="#fe00ff" stroke="black" stroke-width="5"/>
<path d="M7837,3124 l2163,0 l0,993 l-2163,0 z" fill="#4400ff" stroke="black" stroke-width="5"/>
<path d="M3840,0 l1782,0 l0,827 l-1782,0 z" fill="#2300ff" stroke="black" stroke-width="5"/>
<path d="M7750,7564 l1196,0 l0,1213 l-1196,0 z" fill="#fe00ff" stroke="black" stroke-width="5"/>
<path d="M579,6327 l2209,0 l0,1251 l-2209,0 z" fill="#fe00ff" stroke="black" stroke-width="5"/>
<path d="M2788,6097 l1576,0 l0,1772 l-1576,0 z" fill="#ca00ff" stroke="black" stroke-width="5"/>
<path d="M6939,9087 l363,0 l0,408 l-363,0 z" fill="#fe00ff" stroke="black" stroke-width="5"/>
<path d="M3423,2922 l720,0 l0,774 l-720,0 z" fill="#fe00ff" stroke="black" stroke-width="5"/>
<path d="M8571,9803 l120,0 l0,143 l-120,0 z" fill="#ff00fe" stroke="black" stroke-width="5"/>
<path d="M7504,6452 l803,0 l0,610 l-803,0 z" fill="#ff00fe" stroke="black" stroke-width="5"/>
<path d="M0,0 l3840,0 l0,318 l-3840,0 z" fill="#1b00ff" stroke="black" stroke-width="5"/>
<path d="M713,4750 l510,0 l0,549 l-510,0 z" fill="#ff00fe" stroke="black" stroke-width="5"/>
<path d="M6407,3807 l484,0 l0,493 l-484,0 z" fill="#ff00fe" stroke="black" stroke-width="5"/>
<path d="M1649,7578 l877,0 l0,1979 l-877,0 z" fill="#fe00ff" stroke="black" stroke-width="5"/>
<path d="M4305,9790 l60,0 l0,60 l-60,0 z" fill="green"/>
<path d="M4335,9820 l-11,6.5" stroke="black" stroke-width="5"/>
<path d="M29,8198 l60,0 l0,60 l-60,0 z" fill="green"/>
<path d="M59,8228 l186.5,-64.5" stroke="black" stroke-width="5"/>
<path d="M1828,5212 l60,0 l0,60 l-60,0 z" fill="green"/>
<path d="M1858,5242 l10,-110" stroke="black" stroke-width="5"/>
<path d="M2338,1087 l60,0 l0,60 l-60,0 z" fill="green"/>
<path d="M2368,1117 l-2.5,153" stroke="black" stroke-width="5"/>
<path d="M2477,530 l60,0 l0,60 l-60,0 z" fill="green"/>
<path d="M2507,560 l427,9" stroke="black" stroke-width="5"/>
<path d="M6503,7679 l60,0 l0,60 l-60,0 z" fill="green"/>
<path d="M6533,7709 l-138,2.5" stroke="black" stroke-width="5"/>
<path d="M6710,860 l60,0 l0,60 l-60,0 z" fill="green"/>
<path d="M6740,890 l158.5,25" stroke="black" stroke-width="5"/>
<path d="M1438,5634 l60,0 l0,60 l-60,0 z" fill="green"/>
<path d="M1468,5664 l103,226" stroke="black" stroke-width="5"/>
<path d="M8266,7240 l60,0 l0,60 l-60,0 z" fill="green"/>
<path d="M8296,7270 l579,43" stroke="black" stroke-width="5"/>
<path d="M5680,548 l60,0 l0,60 l-60,0 z" fill="green"/>
<path d="M5710,578 l-2,10.5" stroke="black" stroke-width="5"/>
<path d="M3214,2300 l60,0 l0,60 l-60,0 z" fill="green"/>
<path d="M3244,2330 l-104,-9" stroke="black" stroke-width="5"/>
<path d="M969,9268 l60,0 l0,60 l-60,0 z" fill="green"/>
<path d="M999,9298 l-5.5,8.5" stroke="black" stroke-width="5"/>
<path d="M8352,4995 l60,0 l0,60 l-60,0 z" fill="green"/>
<path d="M8382,5025 l63.5,-361.5" stroke="black" stroke-width="5"/>
<path d="M3698,8130 l60,0 l0,60 l-60,0 z" fill="green"/>
<path d="M3728,8160 l14.5,-13.5" stroke="black" stroke-width="5"/>
<path d="M6687,8480 l60,0 l0,60 l-60,0 z" fill="green"/>
<path d="M6717,8510 l8.5,1" stroke="black" stroke-width="5"/>
<path d="M3421,5497 l60,0 l0,60 l-60,0 z" fill="green"/>
<path d="M3451,5527 l300,-630.5" stroke="black" stroke-width="5"/>
<path d="M4653,5254 l60,0 l0,60 l-60,0 z" fill="green"/>
<path d="M4683,5284 l54,-223" stroke="black" stroke-width="5"/>
<path d="M9611,9823 l60,0 l0,60 l-60,0 z" fill="green"/>
<path d="M9641,9853 l-18.5,-6" stroke="black" stroke-width="5"/>
<path d="M1890,569 l60,0 l0,60 l-60,0 z" fill="green"/>
<path d="M1920,599 l-3,2" stroke="black" stroke-width="5"/>
<path d="M5533,5909 l60,0 l0,60 l-60,0 z" fill="green"/>
<path d="M5563,5939 l-7,629.5" stroke="black" stroke-width="5"/>
<path d="M7376,3428 l60,0 l0,60 l-60,0 z" fill="green"/>
<path d="M7406,3458 l-10.5,20.5" stroke="black" stroke-width="5"/>
<path d="M2195,2424 l60,0 l0,60 l-60,0 z" fill="green"/>
<path d="M2225,2454 l-10.5,-1" stroke="black" stroke-width="5"/>
<path d="M8434,5358 l60,0 l0,60 l-60,0 z" fill="green"/>
<path d="M8464,5388 l11.5,250" stroke="black" stroke-width="5"/>
<path d="M4758,6442 l60,0 l0,60 l-60,0 z" fill="green"/>
<path d="M4788,6472 l93,1117" stroke="black" stroke-width="5"/>
<path d="M1420,8645 l60,0 l0,60 l-60,0 z" fill="green"/>
<path d="M1450,8675 l-22,114" stroke="black" stroke-width="5"/>
<path d="M3367,5448 l60,0 l0,60 l-60,0 z" fill="green"/>
<path d="M3397,5478 l-469.5,-258" stroke="black" stroke-width="5"/>
<path d="M7349,8003 l60,0 l0,60 l-60,0 z" fill="green"/>
<path d="M7379,8033 l104,41.5" stroke="black" stroke-width="5"/>
<path d="M913,8220 l60,0 l0,60 l-60,0 z" fill="green"/>
<path d="M943,8250 l-94,35" stroke="black" stroke-width="5"/>
<path d="M5617,3479 l60,0 l0,60 l-60,0 z" fill="green"/>
<path d="M5647,3509 l251,6.5" stroke="black" stroke-width="5"/>
<path d="M3184,9289 l60,0 l0,60 l-60,0 z" fill="green"/>
<path d="M3214,9319 l119,-107" stroke="black" stroke-width="5"/>
<path d="M5838,5905 l60,0 l0,60 l-60,0 z" fill="green"/>
<path d="M5868,5935 l48,2" stroke="black" stroke-width="5"/>
<path d="M6986,8195 l60,0 l0,60 l-60,0 z" fill="green"/>
<path d="M7016,8225 l-22,-19.5" stroke="black" stroke-width="5"/>
<path d="M5185,5736 l60,0 l0,60 l-60,0 z" fill="green"/>
<path d="M5215,5766 l-334,69.5" stroke="black" stroke-width="5"/>
<path d="M5645,1095 l60,0 l0,60 l-60,0 z" fill="green"/>
<path d="M5675,1125 l-45,431" stroke="black" stroke-width="5"/>
<path d="M4404,1456 l60,0 l0,60 l-60,0 z" fill="green"/>
<path d="M4434,1486 l14,-196.5" stroke="black" stroke-width="5"/>
<path d="M103,4817 l60,0 l0,60 l-60,0 z" fill="green"/>
<path d="M133,4847 l223.5,-966.5" stroke="black" stroke-width="5"/>
<path d="M5093,3770 l60,0 l0,60 l-60,0 z" fill="green"/>
<path d="M5123,3800 l-357,-183" stroke="black" stroke-width="5"/>
<path d="M4410,1963 l60,0 l0,60 l-60,0 z" fill="green"/>
<path d="M4440,1993 l-4.5,201" stroke="black" stroke-width="5"/>
<path d="M9015,3018 l60,0 l0,60 l-60,0 z" fill="green"/>
<path d="M9045,3048 l-126.5,-829.5" stroke="black" stroke-width="5"/>
<path d="M8960,3194 l60,0 l0,60 l-60,0 z" fill="green"/>
<path d="M8990,3224 l-71.5,396.5" stroke="black" stroke-width="5"/>
<path d="M5146,511 l60,0 l0,60 l-60,0 z" fill="green"/>
<path d="M5176,541 l-445,-127.5" stroke="black" stroke-width="5"/>
<path d="M8111,7869 l60,0 l0,60 l-60,0 z" fill="green"/>
<path d="M8141,7899 l207,271.5" stroke="black" stroke-width="5"/>
<path d="M1695,6898 l60,0 l0,60 l-60,0 z" fill="green"/>
<path d="M1725,6928 l-41.5,24.5" stroke="black" stroke-width="5"/>
<path d="M3880,6602 l60,0 l0,60 l-60,0 z" fill="green"/>
<path d="M3910,6632 l-334,351" stroke="black" stroke-width="5"/>
<path d="M7096,9259 l60,0 l0,60 l-60,0 z" fill="green"/>
<path d="M7126,9289 l-5.5,2" stroke="black" stroke-width="5"/>
<path d="M3748,3247 l60,0 l0,60 l-60,0 z" fill="green"/>
<path d="M3778,3277 l5,32" stroke="black" stroke-width="5"/>
<path d="M8606,9837 l60,0 l0,60 l-60,0 z" fill="green"/>
<path d="M8636,9867 l-5,7.5" stroke="black" stroke-width="5"/>
<path d="M7896,6845 l60,0 l0,60 l-60,0 z" fill="green"/>
<path d="M7926,6875 l-20.5,-118" stroke="black" stroke-width="5"/>
<path d="M2478,44 l60,0 l0,60 l-60,0 z" fill="green"/>
<path d="M2508,74 l-588,85" stroke="black" stroke-width="5"/>
<path d="M935,4992 l60,0 l0,60 l-60,0 z" fill="green"/>
<path d="M965,5022 l3,2.5" stroke="black" stroke-width="5"/>
<path d="M6633,4025 l60,0 l0,60 l-60,0 z" fill="green"/>
<path d="M6663,4055 l-14,-1.5" stroke="black" stroke-width="5"/>
<path d="M1833,8376 l60,0 l0,60 l-60,0 z" fill="green"/>
<path d="M1863,8406 l224.5,161.5" stroke="black" stroke-width="5"/>
<text font-size="196.116135138184" text-anchor="middle" x="4324" y="9895.140647298364">
0
</text>
<text font-size="196.116135138184" text-anchor="middle" x="245.5" y="8232.140647298364">
1
</text>
<text font-size="196.116135138184" text-anchor="middle" x="1868" y="5200.6406472983645">
2
</text>
<text font-size="196.116135138184" text-anchor="middle" x="2365.5" y="1338.6406472983645">
3
</text>
<text font-size="196.116135138184" text-anchor="middle" x="2934" y="637.6406472983645">
4
</text>
<text font-size="196.116135138184" text-anchor="middle" x="6395" y="7780.1406472983645">
5
</text>
<text font-size="196.116135138184" text-anchor="middle" x="6898.5" y="983.6406472983645">
6
</text>
<text font-size="196.116135138184" text-anchor="middle" x="1571" y="5958.6406472983645">
7
</text>
<text font-size="196.116135138184" text-anchor="middle" x="8875" y="7381.6406472983645">
8
</text>
<text font-size="196.116135138184" text-anchor="middle" x="5708" y="657.1406472983645">
9
</text>
<text font-size="196.116135138184" text-anchor="middle" x="3140" y="2389.6406472983645">
10
</text>
<text font-size="196.116135138184" text-anchor="middle" x="993.5" y="9375.140647298364">
11
</text>
<text font-size="196.116135138184" text-anchor="middle" x="8445.5" y="4732.1406472983645">
12
</text>
<text font-size="196.116135138184" text-anchor="middle" x="3742.5" y="8215.140647298364">
13
</text>
<text font-size="196.116135138184" text-anchor="middle" x="6725.5" y="8579.640647298364">
14
</text>
<text font-size="196.116135138184" text-anchor="middle" x="3751" y="4965.1406472983645">
15
</text>
<text font-size="196.116135138184" text-anchor="middle" x="4737" y="5129.6406472983645">
16
</text>
<text font-size="196.116135138184" text-anchor="middle" x="9622.5" y="9915.640647298364">
17
</text>
<text font-size="196.116135138184" text-anchor="middle" x="1917" y="669.6406472983645">
18
</text>
<text font-size="196.116135138184" text-anchor="middle" x="5556" y="6637.1406472983645">
19
</text>
<text font-size="196.116135138184" text-anchor="middle" x="7395.5" y="3547.1406472983645">
20
</text>
<text font-size="196.116135138184" text-anchor="middle" x="2214.5" y="2521.6406472983645">
21
</text>
<text font-size="196.116135138184" text-anchor="middle" x="8475.5" y="5706.6406472983645">
22
</text>
<text font-size="196.116135138184" text-anchor="middle" x="4881" y="7657.6406472983645">
23
</text>
<text font-size="196.116135138184" text-anchor="middle" x="1428" y="8857.640647298364">
24
</text>
<text font-size="196.116135138184" text-anchor="middle" x="2927.5" y="5288.6406472983645">
25
</text>
<text font-size="196.116135138184" text-anchor="middle" x="7483" y="8143.1406472983645">
26
</text>
<text font-size="196.116135138184" text-anchor="middle" x="849" y="8353.640647298364">
27
</text>
<text font-size="196.116135138184" text-anchor="middle" x="5898" y="3584.1406472983645">
28
</text>
<text font-size="196.116135138184" text-anchor="middle" x="3333" y="9280.640647298364">
29
</text>
<text font-size="196.116135138184" text-anchor="middle" x="5916" y="6005.6406472983645">
30
</text>
<text font-size="196.116135138184" text-anchor="middle" x="6994" y="8274.140647298364">
31
</text>
<text font-size="196.116135138184" text-anchor="middle" x="4881" y="5904.1406472983645">
32
</text>
<text font-size="196.116135138184" text-anchor="middle" x="5630" y="1624.6406472983645">
33
</text>
<text font-size="196.116135138184" text-anchor="middle" x="4448" y="1358.1406472983645">
34
</text>
<text font-size="196.116135138184" text-anchor="middle" x="356.5" y="3949.1406472983645">
35
</text>
<text font-size="196.116135138184" text-anchor="middle" x="4766" y="3685.6406472983645">
36
</text>
<text font-size="196.116135138184" text-anchor="middle" x="4435.5" y="2262.6406472983645">
37
</text>
<text font-size="196.116135138184" text-anchor="middle" x="8918.5" y="2287.1406472983645">
38
</text>
<text font-size="196.116135138184" text-anchor="middle" x="8918.5" y="3689.1406472983645">
39
</text>
<text font-size="196.116135138184" text-anchor="middle" x="4731" y="482.1406472983644">
40
</text>
<text font-size="196.116135138184" text-anchor="middle" x="8348" y="8239.140647298364">
41
</text>
<text font-size="196.116135138184" text-anchor="middle" x="1683.5" y="7021.1406472983645">
42
</text>
<text font-size="196.116135138184" text-anchor="middle" x="3576" y="7051.6406472983645">
43
</text>
<text font-size="196.116135138184" text-anchor="middle" x="7120.5" y="9359.640647298364">
44
</text>
<text font-size="196.116135138184" text-anchor="middle" x="3783" y="3377.6406472983645">
45
</text>
<text font-size="196.116135138184" text-anchor="middle" x="8631" y="9943.140647298364">
46
</text>
<text font-size="196.116135138184" text-anchor="middle" x="7905.5" y="6825.6406472983645">
47
</text>
<text font-size="196.116135138184" text-anchor="middle" x="1920" y="227.6406472983644">
48
</text>
<text font-size="196.116135138184" text-anchor="middle" x="968" y="5093.1406472983645">
49
</text>
<text font-size="196.116135138184" text-anchor="middle" x="6649" y="4122.1406472983645">
50
</text>
<text font-size="196.116135138184" text-anchor="middle" x="2087.5" y="8636.140647298364">
51
</text>
</svg>